<svg width="800" height="600" viewBox="0 0 800 600" fill="none" xmlns="http://www.w3.org/2000/svg">
  <defs>
    <linearGradient id="bg" x1="0" y1="0" x2="1" y2="1">
      <stop offset="0" stop-color="#6366f1"/>
      <stop offset="1" stop-color="#4338ca"/>
    </linearGradient>
    <linearGradient id="chrome" x1="0" y1="0" x2="0" y2="1">
      <stop offset="0" stop-color="#ffffff"/>
      <stop offset="1" stop-color="#f1f5f9"/>
    </linearGradient>
  </defs>
  <rect width="800" height="600" fill="url(#bg)"/>
  <circle cx="720" cy="80" r="140" fill="#ffffff" opacity="0.08"/>
  <circle cx="60" cy="520" r="120" fill="#ffffff" opacity="0.08"/>
  <rect x="120" y="110" width="560" height="380" rx="20" fill="url(#chrome)"/>
  <rect x="120" y="110" width="560" height="54" rx="20" fill="#e2e8f0"/>
  <circle cx="152" cy="137" r="7" fill="#f43f5e"/>
  <circle cx="176" cy="137" r="7" fill="#f59e0b"/>
  <circle cx="200" cy="137" r="7" fill="#10b981"/>
  <rect x="244" y="125" width="280" height="28" rx="14" fill="#ffffff"/>
  <rect x="150" y="204" width="130" height="256" rx="12" fill="#e0e7ff"/>
  <rect x="170" y="228" width="90" height="12" rx="6" fill="#6366f1" opacity="0.9"/>
  <rect x="170" y="260" width="76" height="12" rx="6" fill="#cbd5e1"/>
  <rect x="170" y="284" width="82" height="12" rx="6" fill="#cbd5e1"/>
  <rect x="170" y="320" width="90" height="26" rx="13" fill="#6366f1" opacity="0.9"/>
  <rect x="312" y="204" width="140" height="120" rx="12" fill="#6366f1" opacity="0.85"/>
  <rect x="472" y="204" width="148" height="120" rx="12" fill="#6366f1" opacity="0.35"/>
  <rect x="312" y="340" width="308" height="120" rx="12" fill="#6366f1" opacity="0.12"/>
  <rect x="336" y="366" width="140" height="12" rx="6" fill="#6366f1" opacity="0.7"/>
  <rect x="336" y="392" width="240" height="12" rx="6" fill="#cbd5e1"/>
</svg>