<svg width="800" height="600" viewBox="0 0 800 600" fill="none" xmlns="http://www.w3.org/2000/svg">
  <defs>
    <linearGradient id="bg" x1="0" y1="0" x2="1" y2="1">
      <stop offset="0" stop-color="#8b5cf6"/>
      <stop offset="1" stop-color="#6d28d9"/>
    </linearGradient>
    <linearGradient id="chrome" x1="0" y1="0" x2="0" y2="1">
      <stop offset="0" stop-color="#ffffff"/>
      <stop offset="1" stop-color="#f1f5f9"/>
    </linearGradient>
  </defs>
  <rect width="800" height="600" fill="url(#bg)"/>
  <circle cx="720" cy="520" r="160" fill="#ffffff" opacity="0.08"/>
  <circle cx="40" cy="60" r="120" fill="#ffffff" opacity="0.08"/>
  <rect x="120" y="110" width="560" height="380" rx="20" fill="url(#chrome)"/>
  <rect x="120" y="110" width="560" height="54" rx="20" fill="#e2e8f0"/>
  <circle cx="152" cy="137" r="7" fill="#f43f5e"/>
  <circle cx="176" cy="137" r="7" fill="#f59e0b"/>
  <circle cx="200" cy="137" r="7" fill="#10b981"/>
  <rect x="244" y="125" width="280" height="28" rx="14" fill="#ffffff"/>
  <rect x="150" y="204" width="300" height="180" rx="12" fill="#8b5cf6" opacity="0.15"/>
  <rect x="176" y="232" width="120" height="120" rx="12" fill="#8b5cf6" opacity="0.85"/>
  <rect x="316" y="240" width="110" height="14" rx="7" fill="#8b5cf6" opacity="0.9"/>
  <rect x="316" y="268" width="90" height="14" rx="7" fill="#8b5cf6" opacity="0.6"/>
  <rect x="176" y="376" width="260" height="12" rx="6" fill="#cbd5e1"/>
  <rect x="176" y="398" width="220" height="12" rx="6" fill="#cbd5e1"/>
  <rect x="470" y="204" width="190" height="70" rx="12" fill="#8b5cf6" opacity="0.2"/>
  <rect x="470" y="286" width="190" height="70" rx="12" fill="#8b5cf6" opacity="0.35"/>
  <rect x="470" y="368" width="190" height="46" rx="12" fill="#8b5cf6" opacity="0.9"/>
</svg>